<svg width="243" height="200" viewBox="0 0 243 200" fill="none" xmlns="http://www.w3.org/2000/svg">
<path d="M-125.439 12.2829C-125.439 12.2829 -75.9443 -4.03001 -44.5794 3.77839C-2.90981 14.1522 -3.45598 79.8748 -19.2631 104.281C-35.0703 128.687 -61.3767 117.965 -76.237 107.152C-91.0973 96.3383 -92.982 70.1629 -75.6565 50.8434C-58.3309 31.5239 1.51763 9.48129 52.2014 41.3999C102.885 73.3185 113.34 115.515 77.2161 134.355C63.9865 141.255 51.2672 141.619 39.3477 139.388C27.4283 137.158 9.13615 120.362 22.1594 99.6825C35.1827 79.0028 98.3914 65.9996 132.898 92.2194C163.803 115.703 182.116 158.202 166.087 183.655C150.057 209.109 126.007 193.963 120.84 190.709C115.672 187.454 102.813 176.577 111.8 156.135C120.788 135.692 168.346 81.7729 240.72 140.96" stroke="white" stroke-width="3" stroke-linecap="round"/>
</svg>
